<svg width="18" height="19" viewBox="0 0 18 19" fill="none" xmlns="http://www.w3.org/2000/svg">
<path d="M5.46501 18.035C3.44285 18.035 1.61979 16.8169 0.845815 14.9488C0.071839 13.0806 0.499345 10.9301 1.92901 9.50002L4.05101 7.37802L5.46501 8.79202L3.34401 10.913C2.58607 11.671 2.29007 12.7757 2.56749 13.811C2.84492 14.8464 3.65363 15.6551 4.68899 15.9325C5.72435 16.21 6.82907 15.914 7.58701 15.156L9.70801 13.035L11.122 14.45L9.00101 16.571C8.06509 17.5116 6.79187 18.0387 5.46501 18.035ZM6.17201 13.742L4.75801 12.328L11.829 5.25702L13.243 6.67102L6.17301 13.741L6.17201 13.742ZM13.951 11.621L12.536 10.207L14.657 8.08602C15.4253 7.33035 15.7292 6.22069 15.4533 5.179C15.1773 4.13732 14.3638 3.32367 13.3222 3.04746C12.2806 2.77126 11.1709 3.07494 10.415 3.84302L8.29301 5.96402L6.87901 4.55002L9.00101 2.42802C10.9561 0.489986 14.11 0.496893 16.0566 2.44347C18.0031 4.39005 18.01 7.54394 16.072 9.49902L13.951 11.62V11.621Z" fill="#DADADA"/>
</svg>
