<svg width="49" height="49" viewBox="0 0 49 49" fill="none" xmlns="http://www.w3.org/2000/svg">
<g clip-path="url(#clip0_1_87)">
<path d="M48.3586 24.8047C48.3586 11.5498 37.6135 0.804688 24.3586 0.804688C11.1038 0.804688 0.358643 11.5498 0.358643 24.8047C0.358643 36.7836 9.13505 46.7127 20.6086 48.5131V31.7422H14.5149V24.8047H20.6086V19.5172C20.6086 13.5022 24.1918 10.1797 29.6738 10.1797C32.2988 10.1797 35.0461 10.6484 35.0461 10.6484V16.5547H32.0199C29.0386 16.5547 28.1086 18.4048 28.1086 20.3047V24.8047H34.7649L33.7008 31.7422H28.1086V48.5131C39.5822 46.7127 48.3586 36.7836 48.3586 24.8047Z" fill="#161616"/>
<path d="M33.7008 31.7422L34.7649 24.8047H28.1086V20.3047C28.1086 18.4067 29.0386 16.5547 32.0199 16.5547H35.0461V10.6484C35.0461 10.6484 32.2997 10.1797 29.6738 10.1797C24.1918 10.1797 20.6086 13.5022 20.6086 19.5172V24.8047H14.5149V31.7422H20.6086V48.5131C23.0935 48.9019 25.6238 48.9019 28.1086 48.5131V31.7422H33.7008Z" fill="white"/>
</g>
<defs>
<clipPath id="clip0_1_87">
<rect width="48" height="48" fill="white" transform="translate(0.358643 0.804688)"/>
</clipPath>
</defs>
</svg>
