<svg width="49" height="49" viewBox="0 0 49 49" fill="none" xmlns="http://www.w3.org/2000/svg">
<g clip-path="url(#clip0_1_88)">
<path d="M24.3586 5.12656C30.7711 5.12656 31.5305 5.15469 34.0524 5.26719C36.3961 5.37031 37.6618 5.76406 38.5055 6.09219C39.6211 6.52344 40.4274 7.04844 41.2618 7.88281C42.1055 8.72656 42.6211 9.52344 43.0524 10.6391C43.3805 11.4828 43.7743 12.7578 43.8774 15.0922C43.9899 17.6234 44.018 18.3828 44.018 24.7859C44.018 31.1984 43.9899 31.9578 43.8774 34.4797C43.7743 36.8234 43.3805 38.0891 43.0524 38.9328C42.6211 40.0484 42.0961 40.8547 41.2618 41.6891C40.418 42.5328 39.6211 43.0484 38.5055 43.4797C37.6618 43.8078 36.3868 44.2016 34.0524 44.3047C31.5211 44.4172 30.7618 44.4453 24.3586 44.4453C17.9461 44.4453 17.1868 44.4172 14.6649 44.3047C12.3211 44.2016 11.0555 43.8078 10.2118 43.4797C9.09614 43.0484 8.28989 42.5234 7.45552 41.6891C6.61177 40.8453 6.09614 40.0484 5.66489 38.9328C5.33677 38.0891 4.94302 36.8141 4.83989 34.4797C4.72739 31.9484 4.69927 31.1891 4.69927 24.7859C4.69927 18.3734 4.72739 17.6141 4.83989 15.0922C4.94302 12.7484 5.33677 11.4828 5.66489 10.6391C6.09614 9.52344 6.62114 8.71719 7.45552 7.88281C8.29927 7.03906 9.09614 6.52344 10.2118 6.09219C11.0555 5.76406 12.3305 5.37031 14.6649 5.26719C17.1868 5.15469 17.9461 5.12656 24.3586 5.12656ZM24.3586 0.804688C17.843 0.804688 17.0274 0.832812 14.468 0.945312C11.918 1.05781 10.1649 1.47031 8.64614 2.06094C7.06177 2.67969 5.72114 3.49531 4.38989 4.83594C3.04927 6.16719 2.23364 7.50781 1.61489 9.08281C1.02427 10.6109 0.611768 12.3547 0.499268 14.9047C0.386768 17.4734 0.358643 18.2891 0.358643 24.8047C0.358643 31.3203 0.386768 32.1359 0.499268 34.6953C0.611768 37.2453 1.02427 38.9984 1.61489 40.5172C2.23364 42.1016 3.04927 43.4422 4.38989 44.7734C5.72114 46.1047 7.06177 46.9297 8.63677 47.5391C10.1649 48.1297 11.9086 48.5422 14.4586 48.6547C17.018 48.7672 17.8336 48.7953 24.3493 48.7953C30.8649 48.7953 31.6805 48.7672 34.2399 48.6547C36.7899 48.5422 38.543 48.1297 40.0618 47.5391C41.6368 46.9297 42.9774 46.1047 44.3086 44.7734C45.6399 43.4422 46.4649 42.1016 47.0743 40.5266C47.6649 38.9984 48.0774 37.2547 48.1899 34.7047C48.3024 32.1453 48.3305 31.3297 48.3305 24.8141C48.3305 18.2984 48.3024 17.4828 48.1899 14.9234C48.0774 12.3734 47.6649 10.6203 47.0743 9.10156C46.4836 7.50781 45.668 6.16719 44.3274 4.83594C42.9961 3.50469 41.6555 2.67969 40.0805 2.07031C38.5524 1.47969 36.8086 1.06719 34.2586 0.954688C31.6899 0.832813 30.8743 0.804688 24.3586 0.804688Z" fill="#161616"/>
<path d="M24.3586 12.4766C17.5524 12.4766 12.0305 17.9984 12.0305 24.8047C12.0305 31.6109 17.5524 37.1328 24.3586 37.1328C31.1649 37.1328 36.6868 31.6109 36.6868 24.8047C36.6868 17.9984 31.1649 12.4766 24.3586 12.4766ZM24.3586 32.8016C19.943 32.8016 16.3618 29.2203 16.3618 24.8047C16.3618 20.3891 19.943 16.8078 24.3586 16.8078C28.7743 16.8078 32.3555 20.3891 32.3555 24.8047C32.3555 29.2203 28.7743 32.8016 24.3586 32.8016Z" fill="#161616"/>
<path d="M40.0524 11.9892C40.0524 13.583 38.7586 14.8673 37.1743 14.8673C35.5805 14.8673 34.2961 13.5736 34.2961 11.9892C34.2961 10.3955 35.5899 9.11108 37.1743 9.11108C38.7586 9.11108 40.0524 10.4048 40.0524 11.9892Z" fill="#161616"/>
</g>
<defs>
<clipPath id="clip0_1_88">
<rect width="48" height="48" fill="white" transform="translate(0.358643 0.804688)"/>
</clipPath>
</defs>
</svg>
