<svg width="49" height="49" viewBox="0 0 49 49" fill="none" xmlns="http://www.w3.org/2000/svg">
<g clip-path="url(#clip0_1_90)">
<path d="M24.3586 48.8047C37.6135 48.8047 48.3586 38.0595 48.3586 24.8047C48.3586 11.5499 37.6135 0.804688 24.3586 0.804688C11.1038 0.804688 0.358643 11.5499 0.358643 24.8047C0.358643 38.0595 11.1038 48.8047 24.3586 48.8047Z" fill="white"/>
<path d="M24.3586 0.804688C11.1043 0.804688 0.358643 11.5504 0.358643 24.8047C0.358643 34.9775 6.67963 43.6689 15.608 47.1652C15.3907 45.2689 15.213 42.3454 15.687 40.2714C16.1216 38.3948 18.492 28.3405 18.492 28.3405C18.492 28.3405 17.7809 26.8985 17.7809 24.7849C17.7809 21.4467 19.7167 18.9578 22.1265 18.9578C24.1809 18.9578 25.1685 20.4985 25.1685 22.3356C25.1685 24.3899 23.8648 27.4714 23.1735 30.3356C22.6006 32.7257 24.3784 34.6812 26.729 34.6812C30.9957 34.6812 34.2747 30.1775 34.2747 23.6985C34.2747 17.9504 30.1463 13.9405 24.2401 13.9405C17.4056 13.9405 13.3957 19.0565 13.3957 24.3504C13.3957 26.4047 14.1858 28.617 15.1735 29.822C15.371 30.059 15.3907 30.2763 15.3315 30.5133C15.1537 31.2639 14.7389 32.9035 14.6599 33.2393C14.5611 33.6738 14.3043 33.7726 13.85 33.5553C10.8475 32.1528 8.97099 27.7874 8.97099 24.2516C8.97099 16.6862 14.4623 9.73308 24.8327 9.73308C33.1488 9.73308 39.6278 15.659 39.6278 23.5998C39.6278 31.8763 34.413 38.5331 27.1833 38.5331C24.7537 38.5331 22.4623 37.2689 21.692 35.7677C21.692 35.7677 20.487 40.3504 20.1907 41.4763C19.6574 43.5701 18.1957 46.1775 17.208 47.7775C19.4599 48.4689 21.8302 48.8442 24.3191 48.8442C37.5735 48.8442 48.3191 38.0985 48.3191 24.8442C48.3586 11.5504 37.613 0.804688 24.3586 0.804688Z" fill="#161616"/>
</g>
<defs>
<clipPath id="clip0_1_90">
<rect width="48" height="48" fill="white" transform="translate(0.358643 0.804688)"/>
</clipPath>
</defs>
</svg>
