<svg width="49" height="49" viewBox="0 0 49 49" fill="none" xmlns="http://www.w3.org/2000/svg">
<g clip-path="url(#clip0_1_89)">
<path d="M47.4026 13.2146C47.1312 12.1934 46.5964 11.2614 45.8517 10.5119C45.1069 9.76235 44.1784 9.22157 43.159 8.94366C39.4062 7.93457 24.4062 7.93457 24.4062 7.93457C24.4062 7.93457 9.40625 7.93457 5.65352 8.94366C4.63411 9.22157 3.70557 9.76235 2.96083 10.5119C2.21608 11.2614 1.68126 12.1934 1.40989 13.2146C0.40625 16.9837 0.40625 24.8437 0.40625 24.8437C0.40625 24.8437 0.40625 32.7037 1.40989 36.4727C1.68126 37.4939 2.21608 38.4259 2.96083 39.1754C3.70557 39.925 4.63411 40.4657 5.65352 40.7437C9.40625 41.7528 24.4062 41.7528 24.4062 41.7528C24.4062 41.7528 39.4062 41.7528 43.159 40.7437C44.1784 40.4657 45.1069 39.925 45.8517 39.1754C46.5964 38.4259 47.1312 37.4939 47.4026 36.4727C48.4063 32.7037 48.4062 24.8437 48.4062 24.8437C48.4062 24.8437 48.4063 16.9837 47.4026 13.2146Z" fill="#161616"/>
<path d="M19.4972 31.9811V17.7065L32.0426 24.8438L19.4972 31.9811Z" fill="white"/>
</g>
<defs>
<clipPath id="clip0_1_89">
<rect width="48" height="48" fill="white" transform="translate(0.358643 0.84375)"/>
</clipPath>
</defs>
</svg>
